<?xml version="1.0" encoding="UTF-8"?><svg id="Layer_2" xmlns="http://www.w3.org/2000/svg" viewBox="0 0 1343 219"><defs><style>.cls-1{fill:lime;}</style></defs><g id="Logo"><g id="logo"><path class="cls-1" d="M0,9H233.24c53.46,0,88.7,36.3,88.7,81,0,31.5-17.62,58.8-46.59,72.3l37.03,56.7h-75.38l-28.5-48H66v48H0V9ZM233.27,113c12.54,0,23-10.16,23-23s-10.45-23-23-23H66v46H233.27Z"/><path class="cls-1" d="M677.9,114c0,64.8-49.8,105-115.5,105h-212.4V9h212.4c65.7,0,115.5,39.9,115.5,105Zm-67.49,.5c0-27.06-20.44-47.5-48.4-47.5h-147.01v95h147.01c27.96-.6,48.4-20.74,48.4-47.5Z"/><path class="cls-1" d="M1029.9,114c0,64.8-49.8,105-115.5,105h-212.4V9h212.4c65.7,0,115.5,39.9,115.5,105Zm-67.49,.5c0-27.06-20.44-47.5-48.4-47.5h-147.01v95h147.01c27.96-.6,48.4-20.74,48.4-47.5Z"/><g id="icon"><path class="cls-1" d="M1338,161v58h-285V9h66V161h219Z"/><circle class="cls-1" cx="1295.5" cy="47.5" r="47.5"/></g></g></g></svg>